<?xml version="1.0" encoding="UTF-8" standalone="no"?>
<svg
   xmlns:dc="http://purl.org/dc/elements/1.1/"
   xmlns:cc="http://creativecommons.org/ns#"
   xmlns:rdf="http://www.w3.org/1999/02/22-rdf-syntax-ns#"
   xmlns:svg="http://www.w3.org/2000/svg"
   xmlns="http://www.w3.org/2000/svg"
   xmlns:sodipodi="http://sodipodi.sourceforge.net/DTD/sodipodi-0.dtd"
   xmlns:inkscape="http://www.inkscape.org/namespaces/inkscape"
   width="135.46667mm"
   height="135.46666mm"
   viewBox="0 0 135.46667 135.46666"
   version="1.1"
   id="svg8"
   inkscape:version="1.0.1 (3bc2e813f5, 2020-09-07)"
   sodipodi:docname="aleri1.svg">
  <defs
     id="defs2" />
  <sodipodi:namedview
     id="base"
     pagecolor="#ffffff"
     bordercolor="#666666"
     borderopacity="1.0"
     inkscape:pageopacity="0.0"
     inkscape:pageshadow="2"
     inkscape:zoom="1.979899"
     inkscape:cx="290.99865"
     inkscape:cy="270.57706"
     inkscape:document-units="mm"
     inkscape:current-layer="layer1"
     inkscape:document-rotation="0"
     showgrid="false"
     showguides="false"
     inkscape:window-width="1600"
     inkscape:window-height="835"
     inkscape:window-x="0"
     inkscape:window-y="0"
     inkscape:window-maximized="1" />
  <metadata
     id="metadata5">
    <rdf:RDF>
      <cc:Work
         rdf:about="">
        <dc:format>image/svg+xml</dc:format>
        <dc:type
           rdf:resource="http://purl.org/dc/dcmitype/StillImage" />
        <dc:title />
      </cc:Work>
    </rdf:RDF>
  </metadata>
  <g
     inkscape:label="Слой 1"
     inkscape:groupmode="layer"
     id="layer1">
    <path
       style="fill:#000000;stroke-width:1.41376"
       d="M 50.990134,133.28023 C 15.112318,123.64802 -7.0833096,86.563247 2.0586977,51.524898 11.524973,15.243709 48.616825,-7.1356056 84.024296,2.0710597 117.83865,10.863474 139.93919,43.803105 134.69908,77.599023 128.58666,117.02097 88.858871,143.44695 50.990134,133.28023 Z m 20.539469,-27.52543 -0.03252,-18.865627 11.733286,1.679121 c 6.624607,0.94803 11.489046,0.188658 15.49,-1.106053 4.000961,-1.294713 7.135971,-3.636863 10.294321,-6.861519 1.83625,-1.874788 4.48919,-4.622283 4.48919,-4.622283 1.86436,0.637468 2.46723,0.853206 3.93202,1.145663 5.21116,1.04044 6.94287,-3.466274 2.6617,-6.926998 -1.08767,-0.879261 -1.94987,-1.295383 -3.69978,-2.153036 0,0 1.15963,-2.438439 1.45055,-3.595598 1.46563,-5.829539 -1.68579,-13.105583 -8.32073,-19.210957 -8.8784,-8.169801 -12.549196,-10.834394 -15.655618,-7.625059 -2.296635,2.372727 -2.491461,3.689304 1.523641,6.572784 8.941627,6.421536 14.864497,13.243252 14.864497,17.120334 0,2.098395 -0.52656,3.603388 -1.17011,3.344416 -0.64358,-0.258971 -9.222336,-3.605016 -19.06391,-7.435653 l -18.427914,-7.504787 0.142143,-18.627363 0.05196,-16.68049 c 0,0 -1.580596,-2.538969 -3.981406,-2.486858 -2.655595,0.05767 -3.768551,2.181182 -3.768551,2.181182 l -0.163141,15.59288 -0.394257,18.799758 -11.093495,-1.635928 c -6.620497,-0.976306 -11.484723,-0.217885 -15.486765,1.084131 -4.002043,1.302016 -7.13922,3.658777 -10.297574,6.883435 -1.881629,1.921124 -4.578528,5.120919 -4.578528,5.120919 0,0 -2.45049,-1.366333 -4.02453,-1.680595 -5.452123,-1.088551 -7.108374,3.221796 -2.629251,6.842552 1.154904,0.933581 1.314994,0.835212 3.267573,2.196107 -0.714499,1.55662 -0.827889,1.956899 -0.915277,2.253837 -0.08739,0.296939 -0.148773,0.490536 -0.194002,1.633791 -0.23272,5.882507 1.926109,12.891223 8.561047,18.996607 8.878405,8.169776 12.69446,10.329997 15.800874,7.120657 2.296632,-2.372722 2.346214,-3.184902 -1.668882,-6.068384 C 31.284528,84.814252 25.361657,77.992524 25.361657,74.11545 c 0,-2.098394 0.610093,-3.904447 0.610093,-3.904447 0.643565,0.258956 9.799572,4.17168 19.662188,8.010429 l 17.932037,6.979543 V 103.765 c 0,10.21023 -0.01709,18.79482 0.53457,19.34552 0.551647,0.55071 2.202684,1.93033 3.80728,1.91247 2.269651,-0.0253 3.401879,-1.48466 3.671619,-2.66341 0.266514,-1.03672 -0.04447,-13.58766 -0.04981,-16.60478 z m 0.433763,-27.843618 c 0,0 0.09242,-0.761141 0.09242,-8.891698 0,-5.381346 -0.05872,-10.27994 -0.05872,-10.27994 0,0 8.884192,3.461812 17.958989,7.087092 l 16.499635,6.591424 c 0,0 -2.7593,2.986024 -4.48749,4.002694 -4.498442,2.646373 -5.367088,4.51778 -14.723738,4.368007 C 81.614526,80.698633 71.96336,77.911182 71.96336,77.911182 Z M 45.304651,69.527602 29.16579,63.003226 c 0,0 2.812107,-2.901682 4.487639,-4.002821 4.936056,-3.243915 5.538041,-4.529846 14.016397,-4.512712 7.886417,0.01599 11.65751,1.743797 15.917817,2.529967 0.03243,3.198945 -0.02164,3.782481 -0.02164,9.44505 0,5.347697 0.157099,10.380449 0.157099,10.380449 0,0 -9.542045,-3.727164 -18.418412,-7.315557 z"
       id="path2137"
       sodipodi:nodetypes="sssssscssscsscssssssscccscccsscccscsssssscscssscsssscsssscsssssccsss" />
  </g>
</svg>
